<?xml version="1.0" encoding="utf-8"?>
<!-- Generator: Adobe Illustrator 16.0.0, SVG Export Plug-In . SVG Version: 6.00 Build 0)  -->
<!DOCTYPE svg PUBLIC "-//W3C//DTD SVG 1.1//EN" "http://www.w3.org/Graphics/SVG/1.1/DTD/svg11.dtd">
<svg version="1.1" id="Layer_1" xmlns="http://www.w3.org/2000/svg" xmlns:xlink="http://www.w3.org/1999/xlink" x="0px" y="0px"
	 width="2340px" height="1560px" viewBox="0 0 2340 1560" enable-background="new 0 0 2340 1560" xml:space="preserve">
<g>
	<path fill="#E6352B" d="M780.446,963.525c13.288,0,23.465,2.364,30.536,7.091c7.069,4.728,10.605,12.074,10.605,22.04
		c0,6.219-1.428,11.266-4.28,15.141c-2.855,3.877-6.963,6.921-12.33,9.135c1.789,2.216,3.662,4.75,5.622,7.603
		c1.958,2.854,3.897,5.835,5.813,8.943c1.917,3.11,3.769,6.347,5.558,9.71c1.789,3.366,3.45,6.666,4.983,9.902h-22.281
		c-1.625-2.895-3.272-5.833-4.939-8.815c-1.667-2.981-3.376-5.878-5.129-8.688s-3.485-5.472-5.194-7.985
		c-1.711-2.512-3.422-4.791-5.131-6.836h-9.838v32.325h-19.932v-87.265c4.344-0.851,8.836-1.447,13.479-1.788
		C772.63,963.697,776.783,963.525,780.446,963.525z M781.596,980.519c-1.449,0-2.747,0.044-3.896,0.128
		c-1.15,0.086-2.236,0.172-3.258,0.255v24.021h5.622c7.495,0,12.861-0.937,16.099-2.811c3.236-1.873,4.855-5.067,4.855-9.583
		c0-4.344-1.641-7.43-4.919-9.263C792.817,981.435,787.984,980.519,781.596,980.519z"/>
	<path fill="#E6352B" d="M921.756,1008.755c0,7.582-1.13,14.246-3.386,19.995c-2.258,5.75-5.346,10.563-9.263,14.438
		c-3.919,3.877-8.583,6.794-13.991,8.753c-5.41,1.958-11.223,2.938-17.44,2.938c-6.049,0-11.754-0.98-17.121-2.938
		c-5.366-1.959-10.052-4.876-14.054-8.753c-4.005-3.874-7.155-8.688-9.455-14.438c-2.3-5.749-3.45-12.413-3.45-19.995
		c0-7.58,1.192-14.246,3.578-19.995c2.384-5.75,5.6-10.583,9.646-14.502c4.044-3.917,8.73-6.855,14.054-8.815
		c5.322-1.959,10.924-2.938,16.801-2.938c6.047,0,11.754,0.979,17.121,2.938c5.366,1.96,10.05,4.898,14.054,8.815
		c4.003,3.919,7.155,8.752,9.455,14.502C920.606,994.509,921.756,1001.175,921.756,1008.755z M854.167,1008.755
		c0,4.344,0.531,8.263,1.597,11.755c1.064,3.493,2.597,6.496,4.6,9.007c2,2.514,4.45,4.452,7.347,5.813
		c2.895,1.363,6.217,2.045,9.966,2.045c3.661,0,6.963-0.682,9.902-2.045c2.938-1.361,5.408-3.3,7.411-5.813
		c2-2.511,3.533-5.514,4.6-9.007c1.064-3.492,1.597-7.411,1.597-11.755s-0.533-8.283-1.597-11.818c-1.066-3.533-2.6-6.558-4.6-9.071
		c-2.002-2.512-4.472-4.45-7.411-5.813c-2.938-1.361-6.241-2.044-9.902-2.044c-3.749,0-7.071,0.702-9.966,2.107
		c-2.896,1.406-5.346,3.366-7.347,5.878c-2.002,2.513-3.536,5.537-4.6,9.071C854.699,1000.6,854.167,1004.497,854.167,1008.755z"/>
	<path fill="#E6352B" d="M978.739,1054.879c-14.396,0-25.362-4.003-32.9-12.011c-7.539-8.005-11.308-19.376-11.308-34.113
		c0-7.324,1.15-13.862,3.45-19.612c2.3-5.749,5.45-10.604,9.455-14.565c4.002-3.961,8.771-6.963,14.31-9.007
		c5.536-2.045,11.541-3.066,18.015-3.066c3.747,0,7.155,0.277,10.221,0.83c3.066,0.555,5.75,1.193,8.049,1.916
		c2.3,0.726,4.216,1.47,5.75,2.236s2.639,1.363,3.322,1.789l-5.75,16.099c-2.727-1.447-5.899-2.684-9.519-3.706
		c-3.621-1.021-7.729-1.533-12.329-1.533c-3.066,0-6.069,0.512-9.008,1.533c-2.938,1.022-5.538,2.664-7.793,4.92
		c-2.258,2.258-4.069,5.174-5.43,8.752c-1.364,3.577-2.044,7.921-2.044,13.032c0,4.088,0.447,7.901,1.342,11.435
		c0.894,3.535,2.341,6.58,4.344,9.136c2,2.555,4.62,4.579,7.858,6.068c3.236,1.491,7.155,2.236,11.754,2.236
		c2.895,0,5.494-0.17,7.793-0.512c2.3-0.339,4.344-0.744,6.133-1.214c1.789-0.467,3.364-1,4.728-1.597
		c1.361-0.595,2.597-1.149,3.705-1.661l5.494,15.971c-2.811,1.705-6.771,3.238-11.882,4.6
		C991.388,1054.196,985.467,1054.879,978.739,1054.879z"/>
	<path fill="#E6352B" d="M1073.354,1053.09c-1.795-2.881-3.909-5.995-6.345-9.341s-5.059-6.72-7.872-10.119
		c-2.813-3.398-5.755-6.658-8.83-9.776s-6.147-5.873-9.219-8.265v37.501h-19.932v-88.542h19.932v33.277
		c5.125-5.383,10.331-11.012,15.618-16.89c5.286-5.875,10.169-11.337,14.647-16.388h23.653
		c-6.025,7.177-12.088,14.076-18.185,20.698c-6.097,6.624-12.515,13.287-19.251,19.995c7.083,5.909,13.917,12.916,20.497,21.025
		s12.906,17.051,18.983,26.823H1073.354z"/>
	<path fill="#E6352B" d="M1108.547,1053.09v-88.542h59.795v16.737h-39.863v17.376h35.391v16.354h-35.391v21.337h42.802v16.737
		H1108.547z"/>
	<path fill="#E6352B" d="M1251.645,964.548v16.993h-26.703v71.549h-19.932v-71.549h-26.703v-16.993H1251.645z"/>
	<path fill="#E6352B" d="M1304.668,979.88c-9.285,0-15.992,2.577-20.123,7.729c-4.133,5.154-6.196,12.202-6.196,21.146
		c0,4.344,0.511,8.285,1.533,11.818c1.021,3.535,2.555,6.58,4.6,9.136c2.044,2.555,4.6,4.535,7.665,5.94
		c3.066,1.405,6.645,2.108,10.732,2.108c2.215,0,4.109-0.042,5.687-0.128c1.574-0.084,2.958-0.255,4.152-0.511v-30.792h19.931
		v43.824c-2.385,0.938-6.218,1.938-11.498,3.002c-5.283,1.064-11.799,1.598-19.549,1.598c-6.644,0-12.671-1.022-18.079-3.066
		c-5.41-2.044-10.029-5.025-13.862-8.943c-3.833-3.917-6.794-8.73-8.88-14.438c-2.088-5.705-3.13-12.222-3.13-19.548
		c0-7.41,1.149-13.969,3.449-19.676c2.3-5.706,5.45-10.541,9.455-14.502c4.002-3.961,8.708-6.963,14.118-9.007
		c5.408-2.045,11.18-3.066,17.313-3.066c4.172,0,7.941,0.277,11.307,0.83c3.364,0.555,6.261,1.193,8.688,1.916
		c2.428,0.726,4.428,1.47,6.005,2.236c1.575,0.767,2.703,1.363,3.386,1.789l-5.749,15.971c-2.728-1.447-5.857-2.703-9.392-3.77
		C1312.695,980.413,1308.841,979.88,1304.668,979.88z"/>
	<path fill="#E6352B" d="M1351.175,1053.09v-88.542h59.794v16.737h-39.862v17.376h35.391v16.354h-35.391v21.337h42.802v16.737
		H1351.175z"/>
	<path fill="#E6352B" d="M1488.001,1053.09c-0.986-3.076-2.045-6.236-3.179-9.479s-2.264-6.473-3.388-9.687h-34.581
		c-1.117,3.23-2.239,6.466-3.361,9.712c-1.124,3.246-2.17,6.398-3.139,9.453h-20.698c3.332-9.538,6.492-18.354,9.483-26.447
		c2.99-8.092,5.915-15.716,8.777-22.87c2.863-7.155,5.682-13.947,8.459-20.379c2.776-6.431,5.661-12.713,8.652-18.846h18.893
		c2.909,6.133,5.776,12.415,8.601,18.846c2.823,6.432,5.67,13.224,8.536,20.379c2.867,7.154,5.798,14.778,8.792,22.87
		c2.995,8.093,6.161,16.909,9.499,26.447H1488.001z M1464.055,984.607c-0.445,1.285-1.097,3.036-1.953,5.248
		c-0.856,2.214-1.83,4.771-2.924,7.672c-1.095,2.9-2.318,6.095-3.67,9.583c-1.352,3.487-2.725,7.145-4.12,10.972h25.319
		c-1.355-3.839-2.667-7.509-3.937-11.006c-1.27-3.498-2.478-6.698-3.619-9.601c-1.145-2.9-2.146-5.456-3.009-7.668
		C1465.28,987.598,1464.583,985.865,1464.055,984.607z"/>
	<path fill="#E6352B" d="M1546.654,963.525c13.287,0,23.465,2.364,30.536,7.091c7.068,4.728,10.604,12.074,10.604,22.04
		c0,6.219-1.428,11.266-4.28,15.141c-2.854,3.877-6.963,6.921-12.329,9.135c1.788,2.216,3.661,4.75,5.621,7.603
		c1.959,2.854,3.897,5.835,5.813,8.943c1.917,3.11,3.77,6.347,5.558,9.71c1.789,3.366,3.45,6.666,4.983,9.902h-22.281
		c-1.625-2.895-3.272-5.833-4.939-8.815c-1.667-2.981-3.376-5.878-5.128-8.688c-1.753-2.811-3.486-5.472-5.195-7.985
		c-1.711-2.512-3.421-4.791-5.13-6.836h-9.838v32.325h-19.932v-87.265c4.344-0.851,8.836-1.447,13.479-1.788
		C1538.838,963.697,1542.99,963.525,1546.654,963.525z M1547.804,980.519c-1.449,0-2.747,0.044-3.896,0.128
		c-1.15,0.086-2.236,0.172-3.258,0.255v24.021h5.621c7.494,0,12.86-0.937,16.099-2.811c3.236-1.873,4.855-5.067,4.855-9.583
		c0-4.344-1.642-7.43-4.919-9.263C1559.025,981.435,1554.192,980.519,1547.804,980.519z"/>
</g>
<g>
	<path fill="#F6B035" d="M767.5,1109.521c0.947,0,1.728-0.079,2.345-0.237c0.616-0.157,1.111-0.372,1.484-0.646
		c0.373-0.271,0.631-0.595,0.774-0.968c0.143-0.372,0.215-0.789,0.215-1.248c0-0.975-0.459-1.785-1.377-2.431
		c-0.918-0.646-2.496-1.341-4.733-2.087c-0.976-0.345-1.951-0.738-2.926-1.184c-0.976-0.444-1.85-1.004-2.625-1.678
		c-0.775-0.674-1.406-1.491-1.894-2.453c-0.488-0.961-0.731-2.13-0.731-3.507s0.258-2.617,0.774-3.722
		c0.517-1.104,1.248-2.044,2.194-2.818c0.947-0.774,2.094-1.37,3.442-1.786c1.348-0.415,2.868-0.624,4.561-0.624
		c2.008,0,3.744,0.216,5.207,0.646c1.463,0.431,2.668,0.904,3.615,1.42l-1.937,5.293c-0.833-0.431-1.757-0.811-2.775-1.141
		c-1.019-0.329-2.245-0.494-3.679-0.494c-1.607,0-2.761,0.222-3.464,0.667c-0.704,0.444-1.054,1.126-1.054,2.043
		c0,0.546,0.129,1.005,0.387,1.377c0.258,0.374,0.624,0.71,1.097,1.012c0.473,0.301,1.018,0.574,1.635,0.817
		c0.616,0.244,1.297,0.495,2.043,0.753c1.549,0.574,2.897,1.141,4.045,1.7c1.147,0.559,2.101,1.212,2.861,1.957
		c0.76,0.747,1.327,1.621,1.7,2.625c0.373,1.005,0.56,2.224,0.56,3.657c0,2.783-0.976,4.942-2.926,6.477
		c-1.951,1.534-4.891,2.302-8.821,2.302c-1.32,0-2.51-0.079-3.571-0.236c-1.062-0.158-2.001-0.353-2.818-0.581
		c-0.818-0.229-1.521-0.474-2.108-0.731c-0.588-0.259-1.083-0.502-1.484-0.731l1.893-5.336c0.889,0.488,1.986,0.925,3.292,1.313
		C764.008,1109.326,765.607,1109.521,767.5,1109.521z"/>
	<path fill="#F6B035" d="M835.312,1108.875v5.766H815.39v-29.819h6.712v24.054H835.312z"/>
	<path fill="#F6B035" d="M898.993,1099.71c0,2.553-0.38,4.798-1.14,6.733c-0.761,1.937-1.801,3.558-3.12,4.862
		c-1.32,1.306-2.891,2.288-4.712,2.947c-1.822,0.66-3.78,0.99-5.873,0.99c-2.038,0-3.959-0.33-5.766-0.99
		c-1.807-0.659-3.385-1.642-4.733-2.947c-1.349-1.305-2.41-2.926-3.185-4.862c-0.774-1.936-1.162-4.181-1.162-6.733
		s0.401-4.798,1.205-6.734c0.803-1.937,1.886-3.563,3.249-4.884c1.362-1.319,2.94-2.309,4.733-2.969
		c1.792-0.66,3.679-0.99,5.659-0.99c2.036,0,3.958,0.33,5.766,0.99s3.384,1.649,4.733,2.969c1.348,1.32,2.409,2.947,3.184,4.884
		C898.605,1094.912,898.993,1097.157,898.993,1099.71z M876.23,1099.71c0,1.463,0.179,2.782,0.538,3.958
		c0.358,1.177,0.875,2.188,1.549,3.034c0.674,0.846,1.499,1.499,2.474,1.957c0.975,0.46,2.094,0.688,3.356,0.688
		c1.233,0,2.345-0.229,3.334-0.688c0.99-0.458,1.821-1.111,2.496-1.957c0.674-0.846,1.19-1.857,1.549-3.034
		c0.358-1.176,0.538-2.495,0.538-3.958s-0.179-2.79-0.538-3.98c-0.359-1.19-0.875-2.209-1.549-3.055
		c-0.674-0.846-1.506-1.499-2.496-1.958s-2.102-0.688-3.334-0.688c-1.263,0-2.382,0.236-3.356,0.71
		c-0.976,0.474-1.8,1.134-2.474,1.979c-0.674,0.846-1.191,1.864-1.549,3.055C876.409,1096.963,876.23,1098.275,876.23,1099.71z"/>
	<path fill="#F6B035" d="M950.109,1089.985c-3.127,0-5.386,0.868-6.777,2.604c-1.392,1.735-2.087,4.108-2.087,7.121
		c0,1.463,0.172,2.79,0.517,3.979c0.344,1.191,0.86,2.217,1.549,3.077s1.549,1.527,2.582,2.001c1.033,0.473,2.238,0.71,3.615,0.71
		c0.746,0,1.383-0.015,1.915-0.043c0.53-0.028,0.997-0.087,1.398-0.173v-10.369h6.712v14.759c-0.803,0.315-2.094,0.652-3.873,1.011
		c-1.779,0.358-3.973,0.538-6.583,0.538c-2.237,0-4.267-0.345-6.088-1.033c-1.822-0.688-3.378-1.692-4.668-3.012
		c-1.291-1.319-2.288-2.94-2.991-4.862c-0.703-1.922-1.054-4.116-1.054-6.583c0-2.496,0.387-4.704,1.162-6.627
		c0.775-1.921,1.835-3.55,3.185-4.884c1.348-1.334,2.933-2.345,4.754-3.033c1.821-0.688,3.765-1.033,5.831-1.033
		c1.405,0,2.674,0.094,3.808,0.28c1.133,0.187,2.108,0.402,2.926,0.646c0.817,0.244,1.491,0.494,2.022,0.753
		c0.53,0.258,0.91,0.459,1.14,0.603l-1.936,5.378c-0.918-0.487-1.973-0.91-3.163-1.269S951.514,1089.985,950.109,1089.985z"/>
	<path fill="#F6B035" d="M1016.756,1114.641c-0.332-1.036-0.688-2.101-1.07-3.192s-0.762-2.18-1.141-3.262h-11.646
		c-0.376,1.088-0.754,2.178-1.132,3.271c-0.379,1.094-0.731,2.155-1.057,3.184h-6.971c1.122-3.212,2.187-6.182,3.194-8.907
		c1.007-2.725,1.992-5.292,2.956-7.702c0.964-2.409,1.914-4.696,2.849-6.863c0.935-2.165,1.907-4.281,2.914-6.347h6.363
		c0.979,2.065,1.945,4.182,2.896,6.347c0.951,2.167,1.91,4.454,2.875,6.863c0.965,2.41,1.953,4.978,2.961,7.702
		c1.008,2.726,2.075,5.695,3.199,8.907H1016.756z M1008.691,1091.577c-0.15,0.433-0.369,1.022-0.658,1.768
		c-0.288,0.746-0.616,1.606-0.985,2.584c-0.368,0.977-0.78,2.053-1.236,3.227c-0.455,1.175-0.917,2.406-1.388,3.695h8.527
		c-0.457-1.293-0.898-2.528-1.326-3.706c-0.428-1.178-0.834-2.256-1.219-3.233c-0.385-0.977-0.723-1.838-1.013-2.582
		C1009.104,1092.584,1008.87,1092.001,1008.691,1091.577z"/>
	<path fill="#F6B035" d="M1078.762,1114.641c-1.922-3.413-4.001-6.784-6.239-10.111c-2.237-3.328-4.619-6.469-7.143-9.424v19.535
		h-6.626v-29.819h5.464c0.947,0.947,1.994,2.108,3.141,3.485c1.147,1.377,2.316,2.848,3.507,4.411s2.374,3.184,3.55,4.862
		c1.176,1.678,2.28,3.291,3.313,4.841v-17.6h6.669v29.819H1078.762z"/>
	<path fill="#F6B035" d="M1147.133,1089.985c-3.127,0-5.386,0.868-6.777,2.604c-1.392,1.735-2.087,4.108-2.087,7.121
		c0,1.463,0.172,2.79,0.517,3.979c0.344,1.191,0.86,2.217,1.549,3.077s1.549,1.527,2.582,2.001c1.033,0.473,2.238,0.71,3.615,0.71
		c0.746,0,1.383-0.015,1.915-0.043c0.53-0.028,0.997-0.087,1.398-0.173v-10.369h6.712v14.759c-0.803,0.315-2.094,0.652-3.873,1.011
		c-1.779,0.358-3.973,0.538-6.583,0.538c-2.237,0-4.267-0.345-6.088-1.033c-1.822-0.688-3.378-1.692-4.668-3.012
		c-1.291-1.319-2.288-2.94-2.991-4.862c-0.703-1.922-1.054-4.116-1.054-6.583c0-2.496,0.387-4.704,1.162-6.627
		c0.775-1.921,1.835-3.55,3.185-4.884c1.348-1.334,2.933-2.345,4.754-3.033c1.821-0.688,3.765-1.033,5.831-1.033
		c1.405,0,2.674,0.094,3.808,0.28c1.133,0.187,2.108,0.402,2.926,0.646c0.817,0.244,1.491,0.494,2.022,0.753
		c0.53,0.258,0.91,0.459,1.14,0.603l-1.936,5.378c-0.918-0.487-1.973-0.91-3.163-1.269S1148.538,1089.985,1147.133,1089.985z"/>
	<path fill="#F6B035" d="M1222.173,1099.71c0,2.553-0.38,4.798-1.14,6.733c-0.761,1.937-1.801,3.558-3.12,4.862
		c-1.319,1.306-2.89,2.288-4.711,2.947c-1.822,0.66-3.78,0.99-5.874,0.99c-2.037,0-3.958-0.33-5.766-0.99
		c-1.808-0.659-3.385-1.642-4.733-2.947c-1.349-1.305-2.409-2.926-3.184-4.862c-0.774-1.936-1.162-4.181-1.162-6.733
		s0.401-4.798,1.205-6.734c0.803-1.937,1.886-3.563,3.248-4.884c1.362-1.319,2.94-2.309,4.733-2.969s3.679-0.99,5.658-0.99
		c2.037,0,3.959,0.33,5.766,0.99c1.808,0.66,3.385,1.649,4.733,2.969c1.349,1.32,2.41,2.947,3.185,4.884
		S1222.173,1097.157,1222.173,1099.71z M1199.411,1099.71c0,1.463,0.179,2.782,0.538,3.958c0.358,1.177,0.874,2.188,1.549,3.034
		c0.674,0.846,1.499,1.499,2.474,1.957c0.976,0.46,2.094,0.688,3.356,0.688c1.233,0,2.346-0.229,3.335-0.688
		c0.989-0.458,1.821-1.111,2.496-1.957c0.673-0.846,1.189-1.857,1.549-3.034c0.358-1.176,0.538-2.495,0.538-3.958
		s-0.18-2.79-0.538-3.98c-0.359-1.19-0.876-2.209-1.549-3.055c-0.675-0.846-1.507-1.499-2.496-1.958s-2.102-0.688-3.335-0.688
		c-1.263,0-2.381,0.236-3.356,0.71c-0.975,0.474-1.8,1.134-2.474,1.979c-0.675,0.846-1.19,1.864-1.549,3.055
		C1199.59,1096.963,1199.411,1098.275,1199.411,1099.71z"/>
	<path fill="#F6B035" d="M1258.747,1114.641v-29.819h20.138v5.637h-13.426v5.853h11.92v5.508h-11.92v7.186h14.415v5.637H1258.747z"
		/>
	<path fill="#F6B035" d="M1323.934,1109.521c0.946,0,1.728-0.079,2.345-0.237c0.616-0.157,1.111-0.372,1.484-0.646
		c0.372-0.271,0.631-0.595,0.774-0.968c0.144-0.372,0.215-0.789,0.215-1.248c0-0.975-0.459-1.785-1.377-2.431
		s-2.495-1.341-4.732-2.087c-0.976-0.345-1.951-0.738-2.926-1.184c-0.976-0.444-1.851-1.004-2.625-1.678s-1.406-1.491-1.894-2.453
		c-0.488-0.961-0.731-2.13-0.731-3.507s0.258-2.617,0.774-3.722s1.248-2.044,2.194-2.818c0.947-0.774,2.094-1.37,3.442-1.786
		c1.349-0.415,2.868-0.624,4.562-0.624c2.007,0,3.743,0.216,5.206,0.646c1.463,0.431,2.668,0.904,3.614,1.42l-1.936,5.293
		c-0.833-0.431-1.758-0.811-2.775-1.141c-1.019-0.329-2.245-0.494-3.68-0.494c-1.606,0-2.761,0.222-3.464,0.667
		c-0.703,0.444-1.054,1.126-1.054,2.043c0,0.546,0.129,1.005,0.387,1.377c0.259,0.374,0.624,0.71,1.098,1.012
		c0.474,0.301,1.018,0.574,1.635,0.817c0.617,0.244,1.298,0.495,2.044,0.753c1.549,0.574,2.897,1.141,4.045,1.7
		c1.146,0.559,2.101,1.212,2.861,1.957c0.76,0.747,1.326,1.621,1.699,2.625c0.373,1.005,0.56,2.224,0.56,3.657
		c0,2.783-0.976,4.942-2.926,6.477c-1.951,1.534-4.891,2.302-8.82,2.302c-1.32,0-2.511-0.079-3.572-0.236
		c-1.062-0.158-2-0.353-2.818-0.581c-0.817-0.229-1.521-0.474-2.108-0.731c-0.588-0.259-1.083-0.502-1.484-0.731l1.894-5.336
		c0.889,0.488,1.986,0.925,3.292,1.313C1320.44,1109.326,1322.04,1109.521,1323.934,1109.521z"/>
	<path fill="#F6B035" d="M1400.136,1084.821h6.712v29.819h-6.712v-12.65h-11.274v12.65h-6.712v-29.819h6.712v11.403h11.274V1084.821
		z"/>
	<path fill="#F6B035" d="M1444.711,1114.641v-29.819h20.138v5.637h-13.426v5.853h11.92v5.508h-11.92v7.186h14.415v5.637H1444.711z"
		/>
	<path fill="#F6B035" d="M1510.5,1084.478c4.476,0,7.903,0.796,10.284,2.388c2.381,1.593,3.571,4.066,3.571,7.423
		c0,2.094-0.48,3.794-1.441,5.099c-0.961,1.306-2.345,2.331-4.152,3.077c0.603,0.746,1.233,1.599,1.894,2.56
		c0.659,0.962,1.313,1.966,1.958,3.013s1.269,2.137,1.871,3.27c0.603,1.134,1.162,2.245,1.679,3.335h-7.504
		c-0.548-0.975-1.103-1.965-1.663-2.969c-0.562-1.004-1.138-1.979-1.728-2.926c-0.591-0.947-1.174-1.843-1.749-2.689
		c-0.576-0.846-1.152-1.614-1.729-2.303h-3.313v10.887h-6.712v-29.389c1.463-0.286,2.976-0.487,4.539-0.603
		C1507.868,1084.535,1509.267,1084.478,1510.5,1084.478z M1510.888,1090.2c-0.488,0-0.925,0.015-1.313,0.043
		c-0.387,0.029-0.753,0.058-1.098,0.086v8.09h1.894c2.524,0,4.331-0.315,5.422-0.947c1.09-0.63,1.635-1.706,1.635-3.227
		c0-1.463-0.553-2.503-1.656-3.12C1514.667,1090.509,1513.039,1090.2,1510.888,1090.2z"/>
	<path fill="#F6B035" d="M1561.445,1114.641v-29.819h20.138v5.637h-13.426v5.853h11.92v5.508h-11.92v7.186h14.415v5.637H1561.445z"
		/>
</g>
<g>
	<linearGradient id="SVGID_1_" gradientUnits="userSpaceOnUse" x1="1380.9531" y1="438.5713" x2="955.7144" y2="913.4556">
		<stop  offset="0" style="stop-color:#E6352B"/>
		<stop  offset="1" style="stop-color:#F6B035"/>
	</linearGradient>
	<path fill="url(#SVGID_1_)" d="M1354.438,624.635c-9.809,24.547-28.251,47.888-35.388,56.407
		c-1.647,35.858-16.159,71.236-43.542,98.619c-58.27,58.272-152.746,58.272-211.016,0c-58.271-58.272-58.271-152.745,0-211.018
		c23.303-23.303,52.397-37.277,82.649-41.942l5.865-5.226c6.368-5.675,34.245-29.591,62.719-40.047
		c-5.522-12.795-11.043-25.59-16.563-38.385l-58.324,0c-6.702,15.534-13.404,31.066-20.108,46.601
		c-16.054,4.271-31.657,10.674-46.371,19.198c-15.719-6.243-31.438-12.486-47.158-18.729l-41.24,41.241
		c6.242,15.719,12.486,31.438,18.729,47.158c-8.525,14.713-14.927,30.317-19.198,46.372c-15.534,6.701-31.067,13.403-46.602,20.105
		v58.325c15.534,6.701,31.066,13.403,46.602,20.105c4.271,16.055,10.674,31.66,19.199,46.372
		c-6.244,15.72-12.487,31.439-18.73,47.158l41.241,41.243c15.718-6.246,31.437-12.487,47.158-18.731
		c14.712,8.525,30.315,14.928,46.371,19.2c6.702,15.531,13.404,31.066,20.106,46.6l58.324-0.001
		c6.702-15.532,13.404-31.067,20.105-46.599c16.057-4.272,31.66-10.675,46.372-19.2c15.719,6.244,31.438,12.485,47.159,18.731
		l41.24-41.243c-6.244-15.719-12.486-31.438-18.729-47.158c8.524-14.713,14.927-30.317,19.198-46.372
		c15.535-6.703,31.065-13.403,46.601-20.107v-58.324c-15.533-6.701-31.065-13.405-46.601-20.105
		C1354.486,624.801,1354.46,624.718,1354.438,624.635z"/>
	<g>
		<g>
			<linearGradient id="SVGID_2_" gradientUnits="userSpaceOnUse" x1="1379.9307" y1="437.6577" x2="954.6921" y2="912.5417">
				<stop  offset="0" style="stop-color:#E6352B"/>
				<stop  offset="1" style="stop-color:#F6B035"/>
			</linearGradient>
			<path fill="url(#SVGID_2_)" d="M1204.635,725.339c2.705,8.646,1.986,18.357-3.279,26.874
				c2.845-20.968-4.211-37.655-21.293-50.145c8.29,2.008,15.107,6.999,19.701,13.474c-0.44-3.972-0.695-7.82-0.745-11.517
				c-0.428-29.159,10.577-49.558,20.314-61.872l-21.487-22.365c-24.665,20.762-54.248,23.215-78.861,19.875
				c5.818,5.563,9.718,13.18,10.057,22.074c-9.386-18.953-24.524-28.875-45.69-29.646c9.644-3.595,19.915-2.364,28.293,2.227
				c-4.762-7.262-11.645-13.233-20.297-16.734c-6.535-2.638-13.327-3.599-19.907-3.099
				c-26.879,44.322-21.197,102.845,17.092,141.133c38.543,38.543,97.586,44.039,142.012,16.545
				C1233.352,752.895,1223.1,733.512,1204.635,725.339z M1108.707,727.879c-11.596-18.981-1.775-45.31,20.399-50.49
				C1112.283,690.225,1105.462,706.96,1108.707,727.879z"/>
			<linearGradient id="SVGID_3_" gradientUnits="userSpaceOnUse" x1="1381.3379" y1="438.917" x2="956.0995" y2="913.8008">
				<stop  offset="0" style="stop-color:#E6352B"/>
				<stop  offset="1" style="stop-color:#F6B035"/>
			</linearGradient>
			<path fill="url(#SVGID_3_)" d="M1398.998,446.613c-0.055-6.007-4.979-10.814-10.961-10.761
				c-39.088,0.326-76.739,2.341-108.285,23.261c-16.63,11.019-30.374,26.394-41.439,43.492
				c-27.119,1.904-67.977,38.316-67.977,38.316s34.911,26.985,38.756,29.216c-1.883,7.239-3.444,14.265-4.539,20.846
				c-0.563,3.458,0.593,7.017,3.091,9.518l29.752,29.211c2.067,2.047,4.839,3.148,7.698,3.131c0.601-0.015,15.438-3.031,22.636-5.07
				c1.162,1.924,29.855,38.307,29.855,38.307s35.733-41.481,37.118-68.617c16.956-11.357,32.092-25.36,42.816-42.173
				C1397.9,523.417,1399.309,484.096,1398.998,446.613z M1341.252,524.821c-4.849,11.975-18.451,17.748-30.418,12.912
				c-11.963-4.846-17.737-18.446-12.906-30.403c4.835-11.968,18.439-17.745,30.417-12.912
				C1340.302,499.249,1346.072,512.868,1341.252,524.821z"/>
		</g>
	</g>
</g>
</svg>
